<?xml version="1.0" encoding="UTF-8"?>
<svg id="_레이어_2" data-name="레이어 2" xmlns="http://www.w3.org/2000/svg" viewBox="0 0 898 408.92">
  <defs>
    <style>
      .cls-1 {
        fill: #231815;
        stroke-width: 0px;
      }
    </style>
  </defs>
  <g id="_레이어_1-2" data-name="레이어 1">
    <g>
      <g>
        <path class="cls-1" d="M269.22,402.35c0,1-.19,1.9-.58,2.71-.38.8-.91,1.49-1.58,2.06-.67.57-1.48,1.02-2.42,1.33-.95.31-1.98.47-3.1.47-1.02,0-1.96-.14-2.8-.43-.84-.28-1.58-.66-2.21-1.13-.63-.48-1.17-1.01-1.61-1.62-.44-.6-.78-1.23-1.02-1.89-.08-.22-.02-.35.18-.39l3.25-1.39c.16,0,.26.08.3.23.14.4.34.8.6,1.18.27.39.56.73.91,1.01s.73.53,1.16.71.87.27,1.34.27c1.02,0,1.87-.27,2.55-.8.67-.53,1.01-1.26,1.01-2.15s-.27-1.61-.78-2.14c-.52-.54-1.18-1.01-1.96-1.41-.78-.39-1.63-.75-2.56-1.08-.93-.34-1.77-.75-2.56-1.26-.78-.49-1.44-1.13-1.96-1.88-.52-.75-.78-1.74-.78-2.94,0-1,.19-1.9.58-2.69.4-.79.91-1.46,1.57-1.99.65-.54,1.4-.96,2.23-1.26.84-.28,1.69-.44,2.58-.44.76,0,1.5.08,2.21.23.71.14,1.38.39,2,.73.62.32,1.19.76,1.7,1.3.51.53.95,1.18,1.31,1.94.04.05.05.13.03.23-.03.1-.07.17-.16.21l-3.04,1.3c-.16.06-.28,0-.36-.18-.12-.26-.29-.52-.51-.79-.22-.27-.48-.52-.77-.74-.29-.22-.62-.4-.98-.53-.36-.13-.75-.19-1.17-.19-.95,0-1.71.28-2.29.84-.58.57-.87,1.23-.87,1.99,0,.67.27,1.23.78,1.63.52.41,1.18.79,1.96,1.14.78.34,1.63.69,2.55,1.05.91.36,1.76.82,2.54,1.37.78.54,1.44,1.26,1.96,2.1.52.85.78,1.94.78,3.28Z"/>
        <path class="cls-1" d="M330.95,397.2c0,1.63-.3,3.15-.92,4.56-.61,1.42-1.45,2.66-2.51,3.73-1.06,1.06-2.31,1.89-3.74,2.51-1.42.61-2.95.92-4.58.92s-3.15-.31-4.57-.92c-1.42-.62-2.67-1.45-3.74-2.51-1.06-1.08-1.9-2.31-2.51-3.73-.62-1.41-.92-2.93-.92-4.56s.3-3.15.92-4.57c.61-1.42,1.45-2.67,2.51-3.74,1.06-1.06,2.31-1.89,3.74-2.51,1.42-.61,2.95-.92,4.57-.92s3.15.31,4.58.92c1.42.62,2.67,1.45,3.74,2.51,1.06,1.08,1.9,2.32,2.51,3.74.62,1.42.92,2.95.92,4.57ZM326.88,397.2c0-1.17-.2-2.24-.6-3.24s-.95-1.87-1.64-2.6c-.69-.74-1.51-1.32-2.44-1.75-.93-.41-1.93-.63-3-.63s-2.06.22-2.99.63c-.93.43-1.75,1.01-2.44,1.75-.69.74-1.24,1.61-1.64,2.6-.4,1-.6,2.07-.6,3.24s.2,2.25.6,3.25c.4,1.01.95,1.88,1.64,2.63.69.74,1.51,1.32,2.44,1.74.93.43,1.93.63,2.99.63s2.07-.21,3-.63c.93-.41,1.75-1,2.44-1.74.69-.75,1.24-1.62,1.64-2.63.4-1,.6-2.09.6-3.25Z"/>
        <path class="cls-1" d="M382.26,408.49h-12.77c-.06,0-.12-.03-.19-.08s-.1-.12-.1-.19v-22.05c0-.05.03-.12.1-.19.07-.06.14-.1.19-.1h3.46c.08,0,.16.04.23.1.07.08.1.14.1.19v18.82h8.98c.18,0,.27.12.27.34v2.89c0,.18-.09.27-.27.27Z"/>
        <path class="cls-1" d="M437.24,404.01c-.44,1-1.05,1.85-1.82,2.55-.77.7-1.68,1.26-2.73,1.64-1.04.39-2.17.58-3.37.58s-2.32-.19-3.37-.58c-1.04-.39-1.94-.95-2.71-1.64-.76-.7-1.37-1.55-1.81-2.55-.44-1.01-.66-2.12-.66-3.34v-14.49c0-.05.03-.12.1-.19.07-.06.14-.1.19-.1h3.46c.08,0,.16.04.23.1.07.08.1.14.1.19v14.49c0,1.44.41,2.58,1.22,3.41.82.84,1.9,1.26,3.24,1.26s2.46-.41,3.28-1.26c.82-.83,1.24-1.97,1.24-3.41v-14.49c0-.05.03-.12.09-.19.06-.06.12-.1.18-.1h3.49c.08,0,.15.04.21.1.06.08.09.14.09.19v14.49c0,1.22-.23,2.33-.67,3.34Z"/>
        <path class="cls-1" d="M486.05,408.42c-.06.05-.12.08-.18.08h-3.49c-.18,0-.27-.09-.27-.27v-18.85h-5.69c-.06,0-.12-.04-.18-.09-.06-.06-.09-.13-.09-.22v-2.89c0-.05.03-.12.08-.19.05-.06.12-.1.19-.1h15.36c.08,0,.15.04.21.1.06.08.09.14.09.19v2.89c0,.21-.1.31-.3.31h-5.63v18.85c0,.08-.03.14-.09.19Z"/>
        <path class="cls-1" d="M534.05,408.49h-3.46c-.17,0-.27-.09-.27-.27v-22.05c0-.05.02-.12.07-.19.05-.06.12-.1.19-.1h3.46c.1,0,.17.04.23.1.05.08.08.14.08.19v22.05c0,.18-.1.27-.3.27Z"/>
        <path class="cls-1" d="M596.08,397.2c0,1.63-.3,3.15-.92,4.56-.61,1.42-1.45,2.66-2.51,3.73-1.06,1.06-2.31,1.89-3.74,2.51-1.42.61-2.95.92-4.58.92s-3.15-.31-4.57-.92c-1.42-.62-2.67-1.45-3.74-2.51-1.06-1.08-1.9-2.31-2.51-3.73-.62-1.41-.92-2.93-.92-4.56s.3-3.15.92-4.57c.61-1.42,1.45-2.67,2.51-3.74,1.06-1.06,2.31-1.89,3.74-2.51,1.42-.61,2.95-.92,4.57-.92s3.15.31,4.58.92c1.42.62,2.67,1.45,3.74,2.51,1.06,1.08,1.9,2.32,2.51,3.74.62,1.42.92,2.95.92,4.57ZM592.01,397.2c0-1.17-.2-2.24-.6-3.24-.4-1-.95-1.87-1.64-2.6-.69-.74-1.51-1.32-2.44-1.75-.93-.41-1.93-.63-3-.63s-2.06.22-2.99.63c-.93.43-1.75,1.01-2.44,1.75-.69.74-1.24,1.61-1.64,2.6-.4,1-.6,2.07-.6,3.24s.2,2.25.6,3.25c.4,1.01.95,1.88,1.64,2.63.69.74,1.51,1.32,2.44,1.74.93.43,1.93.63,2.99.63s2.07-.21,3-.63c.93-.41,1.75-1,2.44-1.74.69-.75,1.24-1.62,1.64-2.63.4-1,.6-2.09.6-3.25Z"/>
        <path class="cls-1" d="M651.78,408.33c-.34.23-.74.38-1.2.43-.47.05-.93.01-1.39-.13-.47-.13-.82-.36-1.06-.7l-9.73-14.66v14.96c0,.08-.03.14-.1.19s-.15.08-.23.08h-3.46c-.06,0-.12-.03-.19-.08s-.1-.12-.1-.19v-21.2c0-.4.17-.73.52-.96.35-.25.76-.39,1.22-.44.47-.05.93,0,1.39.14.47.14.8.38,1.02.71l9.76,14.64v-14.93c0-.05.03-.12.09-.19.06-.06.13-.1.21-.1h3.46c.08,0,.15.04.21.1.06.08.09.14.09.19v21.2c0,.4-.17.71-.51.95Z"/>
      </g>
      <g>
        <g>
          <rect class="cls-1" x="435.5" y="20.03" width="31.09" height="31.09"/>
          <path class="cls-1" d="M435.5,190.92h-83.07V25.65c0-3.1-2.52-5.62-5.62-5.62h-19.85c-3.1,0-5.62,2.52-5.62,5.62v170.98c0,14.02,11.36,25.38,25.38,25.38h119.87V66.66h-31.09v124.26Z"/>
          <path class="cls-1" d="M482.13,20.03v31.09h67.53v164.97c0,3.27,2.65,5.92,5.92,5.92h19.24c3.27,0,5.92-2.65,5.92-5.92V45.56c0-14.1-11.43-25.53-25.53-25.53h-73.08Z"/>
        </g>
        <path class="cls-1" d="M562.4,0h-234.56c-14.44,0-26.19,11.75-26.19,26.19v177.81c0,20.97,17.06,38.03,38.03,38.03h234.57c14.44,0,26.18-11.75,26.18-26.19V38.04c0-20.98-17.06-38.04-38.03-38.04ZM592.66,215.85c0,10.16-8.26,18.42-18.41,18.42h-234.57c-16.68,0-30.26-13.58-30.26-30.26V26.19c0-10.16,8.26-18.42,18.42-18.42h234.56c16.68,0,30.26,13.58,30.26,30.27v177.81Z"/>
      </g>
      <g>
        <g>
          <path class="cls-1" d="M8.56,358.36c-5.71-5.74-8.56-13.98-8.56-24.68v-41.72h13.73v41.18c0,14.51,6.26,21.77,18.81,21.77s18.7-7.26,18.7-21.77v-41.18h13.52v41.72c0,10.7-2.84,18.94-8.51,24.68-5.67,5.74-13.61,8.61-23.82,8.61s-18.17-2.87-23.87-8.61Z"/>
          <path class="cls-1" d="M149.69,291.96v73.94h-11.31l-40.78-50.08v50.08h-13.62v-73.94h11.31l40.77,50.06v-50.06h13.63Z"/>
          <path class="cls-1" d="M169.55,291.96h13.73v73.94h-13.73v-73.94Z"/>
        </g>
        <g>
          <polygon class="cls-1" points="698.76 303.46 739.01 303.46 739.01 291.96 685.03 291.96 685.03 303.47 698.76 303.47 698.76 303.46"/>
          <path class="cls-1" d="M636.43,303.56h-24.51v-11.6h62.76v11.6h-24.52v62.34h-13.73v-62.34Z"/>
          <path class="cls-1" d="M769.49,362.05c-6.03-3.28-10.74-7.81-14.16-13.57-3.41-5.78-5.11-12.3-5.11-19.56s1.72-13.75,5.18-19.54c3.44-5.78,8.18-10.31,14.21-13.57,6.02-3.28,12.76-4.92,20.23-4.92,6.05,0,11.58,1.07,16.58,3.18,5,2.11,9.22,5.17,12.68,9.18l-8.88,8.34c-5.35-5.78-11.94-8.65-19.76-8.65-5.06,0-9.61,1.11-13.62,3.32-4.02,2.21-7.15,5.29-9.4,9.25-2.25,3.94-3.38,8.4-3.38,13.41s1.13,9.47,3.38,13.43c2.24,3.94,5.38,7.01,9.4,9.25,4.01,2.21,8.56,3.32,13.62,3.32,7.82,0,14.41-2.91,19.76-8.77l8.88,8.47c-3.45,4-7.7,7.07-12.73,9.18-5.04,2.11-10.59,3.18-16.65,3.18-7.46,0-14.21-1.64-20.22-4.92Z"/>
          <path class="cls-1" d="M898,291.96v73.94h-13.73v-31.69h-38.24v31.69h-13.73v-73.94h13.73v30.52h38.24v-30.52h13.73Z"/>
          <polygon class="cls-1" points="734.46 334 734.46 322.69 685.03 322.69 685.03 365.9 740.49 365.9 740.49 354.38 698.76 354.38 698.76 334 734.46 334"/>
        </g>
        <g>
          <polygon class="cls-1" points="378.51 303.46 418.76 303.46 418.76 291.96 364.78 291.96 364.78 303.47 378.51 303.47 378.51 303.46"/>
          <path class="cls-1" d="M238.7,362.05c-6.03-3.28-10.74-7.81-14.16-13.57-3.41-5.78-5.11-12.3-5.11-19.56s1.72-13.75,5.18-19.54c3.44-5.78,8.18-10.31,14.21-13.57,6.02-3.28,12.76-4.92,20.23-4.92,6.05,0,11.58,1.07,16.58,3.18,5,2.11,9.22,5.17,12.68,9.18l-8.88,8.34c-5.35-5.78-11.94-8.65-19.76-8.65-5.06,0-9.61,1.11-13.62,3.32-4.02,2.21-7.15,5.29-9.4,9.25-2.25,3.94-3.38,8.4-3.38,13.41s1.13,9.47,3.38,13.43c2.24,3.94,5.38,7.01,9.4,9.25,4.01,2.21,8.56,3.32,13.62,3.32,7.82,0,14.41-2.91,19.76-8.77l8.88,8.47c-3.45,4-7.7,7.07-12.73,9.18-5.04,2.11-10.59,3.18-16.65,3.18-7.46,0-14.21-1.64-20.22-4.92Z"/>
          <path class="cls-1" d="M301.5,291.96h13.73v62.32h38.66v11.62h-52.4v-73.94Z"/>
          <path class="cls-1" d="M580.39,291.96v73.94h-11.31l-40.78-50.08v50.08h-13.62v-73.94h11.31l40.77,50.06v-50.06h13.63Z"/>
          <polygon class="cls-1" points="364.78 365.9 420.24 365.9 420.24 354.38 378.51 354.38 378.51 334 414.21 334 414.21 322.69 364.78 322.69 364.78 365.9"/>
          <polygon class="cls-1" points="446.49 348.89 446.54 348.78 446.54 348.78 446.49 348.89"/>
          <path class="cls-1" d="M490.91,365.9h14.36l-33.38-73.94h-13.52l-33.28,73.94h14.16c8.59-20.07,17.18-40.14,25.77-60.21,8.63,20.07,17.26,40.14,25.89,60.21Z"/>
        </g>
      </g>
    </g>
  </g>
</svg>