<svg width="898" height="409" viewBox="0 0 898 409" fill="none" xmlns="http://www.w3.org/2000/svg">
<g clip-path="url(#clip0_634_2)">
<path d="M269.22 402.35C269.22 403.35 269.03 404.25 268.64 405.06C268.26 405.86 267.73 406.55 267.06 407.12C266.39 407.69 265.58 408.14 264.64 408.45C263.69 408.76 262.66 408.92 261.54 408.92C260.52 408.92 259.58 408.78 258.74 408.49C257.9 408.21 257.16 407.83 256.53 407.36C255.9 406.88 255.36 406.35 254.92 405.74C254.48 405.14 254.14 404.51 253.9 403.85C253.82 403.63 253.88 403.5 254.08 403.46L257.33 402.07C257.49 402.07 257.59 402.15 257.63 402.3C257.77 402.7 257.97 403.1 258.23 403.48C258.5 403.87 258.79 404.21 259.14 404.49C259.49 404.77 259.87 405.02 260.3 405.2C260.73 405.38 261.17 405.47 261.64 405.47C262.66 405.47 263.51 405.2 264.19 404.67C264.86 404.14 265.2 403.41 265.2 402.52C265.2 401.63 264.93 400.91 264.42 400.38C263.9 399.84 263.24 399.37 262.46 398.97C261.68 398.58 260.83 398.22 259.9 397.89C258.97 397.55 258.13 397.14 257.34 396.63C256.56 396.14 255.9 395.5 255.38 394.75C254.86 394 254.6 393.01 254.6 391.81C254.6 390.81 254.79 389.91 255.18 389.12C255.58 388.33 256.09 387.66 256.75 387.13C257.4 386.59 258.15 386.17 258.98 385.87C259.82 385.59 260.67 385.43 261.56 385.43C262.32 385.43 263.06 385.51 263.77 385.66C264.48 385.8 265.15 386.05 265.77 386.39C266.39 386.71 266.96 387.15 267.47 387.69C267.98 388.22 268.42 388.87 268.78 389.63C268.82 389.68 268.83 389.76 268.81 389.86C268.78 389.96 268.74 390.03 268.65 390.07L265.61 391.37C265.45 391.43 265.33 391.37 265.25 391.19C265.13 390.93 264.96 390.67 264.74 390.4C264.52 390.13 264.26 389.88 263.97 389.66C263.68 389.44 263.35 389.26 262.99 389.13C262.63 389 262.24 388.94 261.82 388.94C260.87 388.94 260.11 389.22 259.53 389.78C258.95 390.35 258.66 391.01 258.66 391.77C258.66 392.44 258.93 393 259.44 393.4C259.96 393.81 260.62 394.19 261.4 394.54C262.18 394.88 263.03 395.23 263.95 395.59C264.86 395.95 265.71 396.41 266.49 396.96C267.27 397.5 267.93 398.22 268.45 399.06C268.97 399.91 269.23 401 269.23 402.34L269.22 402.35Z" fill="white"/>
<path d="M330.95 397.2C330.95 398.83 330.65 400.35 330.03 401.76C329.42 403.18 328.58 404.42 327.52 405.49C326.46 406.55 325.21 407.38 323.78 408C322.36 408.61 320.83 408.92 319.2 408.92C317.57 408.92 316.05 408.61 314.63 408C313.21 407.38 311.96 406.55 310.89 405.49C309.83 404.41 308.99 403.18 308.38 401.76C307.76 400.35 307.46 398.83 307.46 397.2C307.46 395.57 307.76 394.05 308.38 392.63C308.99 391.21 309.83 389.96 310.89 388.89C311.95 387.83 313.2 387 314.63 386.38C316.05 385.77 317.58 385.46 319.2 385.46C320.82 385.46 322.35 385.77 323.78 386.38C325.2 387 326.45 387.83 327.52 388.89C328.58 389.97 329.42 391.21 330.03 392.63C330.65 394.05 330.95 395.58 330.95 397.2ZM326.88 397.2C326.88 396.03 326.68 394.96 326.28 393.96C325.88 392.96 325.33 392.09 324.64 391.36C323.95 390.62 323.13 390.04 322.2 389.61C321.27 389.2 320.27 388.98 319.2 388.98C318.13 388.98 317.14 389.2 316.21 389.61C315.28 390.04 314.46 390.62 313.77 391.36C313.08 392.1 312.53 392.97 312.13 393.96C311.73 394.96 311.53 396.03 311.53 397.2C311.53 398.37 311.73 399.45 312.13 400.45C312.53 401.46 313.08 402.33 313.77 403.08C314.46 403.82 315.28 404.4 316.21 404.82C317.14 405.25 318.14 405.45 319.2 405.45C320.26 405.45 321.27 405.24 322.2 404.82C323.13 404.41 323.95 403.82 324.64 403.08C325.33 402.33 325.88 401.46 326.28 400.45C326.68 399.45 326.88 398.36 326.88 397.2Z" fill="white"/>
<path d="M382.26 408.49H369.49C369.43 408.49 369.37 408.46 369.3 408.41C369.23 408.36 369.2 408.29 369.2 408.22V386.17C369.2 386.12 369.23 386.05 369.3 385.98C369.37 385.92 369.44 385.88 369.49 385.88H372.95C373.03 385.88 373.11 385.92 373.18 385.98C373.25 386.06 373.28 386.12 373.28 386.17V404.99H382.26C382.44 404.99 382.53 405.11 382.53 405.33V408.22C382.53 408.4 382.44 408.49 382.26 408.49Z" fill="white"/>
<path d="M437.24 404.01C436.8 405.01 436.19 405.86 435.42 406.56C434.65 407.26 433.74 407.82 432.69 408.2C431.65 408.59 430.52 408.78 429.32 408.78C428.12 408.78 427 408.59 425.95 408.2C424.91 407.81 424.01 407.25 423.24 406.56C422.48 405.86 421.87 405.01 421.43 404.01C420.99 403 420.77 401.89 420.77 400.67V386.18C420.77 386.13 420.8 386.06 420.87 385.99C420.94 385.93 421.01 385.89 421.06 385.89H424.52C424.6 385.89 424.68 385.93 424.75 385.99C424.82 386.07 424.85 386.13 424.85 386.18V400.67C424.85 402.11 425.26 403.25 426.07 404.08C426.89 404.92 427.97 405.34 429.31 405.34C430.65 405.34 431.77 404.93 432.59 404.08C433.41 403.25 433.83 402.11 433.83 400.67V386.18C433.83 386.13 433.86 386.06 433.92 385.99C433.98 385.93 434.04 385.89 434.1 385.89H437.59C437.67 385.89 437.74 385.93 437.8 385.99C437.86 386.07 437.89 386.13 437.89 386.18V400.67C437.89 401.89 437.66 403 437.22 404.01H437.24Z" fill="white"/>
<path d="M486.05 408.42C485.99 408.47 485.93 408.5 485.87 408.5H482.38C482.2 408.5 482.11 408.41 482.11 408.23V389.38H476.42C476.36 389.38 476.3 389.34 476.24 389.29C476.18 389.23 476.15 389.16 476.15 389.07V386.18C476.15 386.13 476.18 386.06 476.23 385.99C476.28 385.93 476.35 385.89 476.42 385.89H491.78C491.86 385.89 491.93 385.93 491.99 385.99C492.05 386.07 492.08 386.13 492.08 386.18V389.07C492.08 389.28 491.98 389.38 491.78 389.38H486.15V408.23C486.15 408.31 486.12 408.37 486.06 408.42H486.05Z" fill="white"/>
<path d="M534.05 408.49H530.59C530.42 408.49 530.32 408.4 530.32 408.22V386.17C530.32 386.12 530.34 386.05 530.39 385.98C530.44 385.92 530.51 385.88 530.58 385.88H534.04C534.14 385.88 534.21 385.92 534.27 385.98C534.32 386.06 534.35 386.12 534.35 386.17V408.22C534.35 408.4 534.25 408.49 534.05 408.49Z" fill="white"/>
<path d="M596.08 397.2C596.08 398.83 595.78 400.35 595.16 401.76C594.55 403.18 593.71 404.42 592.65 405.49C591.59 406.55 590.34 407.38 588.91 408C587.49 408.61 585.96 408.92 584.33 408.92C582.7 408.92 581.18 408.61 579.76 408C578.34 407.38 577.09 406.55 576.02 405.49C574.96 404.41 574.12 403.18 573.51 401.76C572.89 400.35 572.59 398.83 572.59 397.2C572.59 395.57 572.89 394.05 573.51 392.63C574.12 391.21 574.96 389.96 576.02 388.89C577.08 387.83 578.33 387 579.76 386.38C581.18 385.77 582.71 385.46 584.33 385.46C585.95 385.46 587.48 385.77 588.91 386.38C590.33 387 591.58 387.83 592.65 388.89C593.71 389.97 594.55 391.21 595.16 392.63C595.78 394.05 596.08 395.58 596.08 397.2ZM592.01 397.2C592.01 396.03 591.81 394.96 591.41 393.96C591.01 392.96 590.46 392.09 589.77 391.36C589.08 390.62 588.26 390.04 587.33 389.61C586.4 389.2 585.4 388.98 584.33 388.98C583.26 388.98 582.27 389.2 581.34 389.61C580.41 390.04 579.59 390.62 578.9 391.36C578.21 392.1 577.66 392.97 577.26 393.96C576.86 394.96 576.66 396.03 576.66 397.2C576.66 398.37 576.86 399.45 577.26 400.45C577.66 401.46 578.21 402.33 578.9 403.08C579.59 403.82 580.41 404.4 581.34 404.82C582.27 405.25 583.27 405.45 584.33 405.45C585.39 405.45 586.4 405.24 587.33 404.82C588.26 404.41 589.08 403.82 589.77 403.08C590.46 402.33 591.01 401.46 591.41 400.45C591.81 399.45 592.01 398.36 592.01 397.2Z" fill="white"/>
<path d="M651.78 408.33C651.44 408.56 651.04 408.71 650.58 408.76C650.11 408.81 649.65 408.77 649.19 408.63C648.72 408.5 648.37 408.27 648.13 407.93L638.4 393.27V408.23C638.4 408.31 638.37 408.37 638.3 408.42C638.23 408.47 638.15 408.5 638.07 408.5H634.61C634.55 408.5 634.49 408.47 634.42 408.42C634.35 408.37 634.32 408.3 634.32 408.23V387.03C634.32 386.63 634.49 386.3 634.84 386.07C635.19 385.82 635.6 385.68 636.06 385.63C636.53 385.58 636.99 385.63 637.45 385.77C637.92 385.91 638.25 386.15 638.47 386.48L648.23 401.12V386.19C648.23 386.14 648.26 386.07 648.32 386C648.38 385.94 648.45 385.9 648.53 385.9H651.99C652.07 385.9 652.14 385.94 652.2 386C652.26 386.08 652.29 386.14 652.29 386.19V407.39C652.29 407.79 652.12 408.1 651.78 408.34V408.33Z" fill="white"/>
<path d="M466.59 20.03H435.5V51.12H466.59V20.03Z" fill="white"/>
<path d="M435.5 190.92H352.43V25.65C352.43 22.55 349.91 20.03 346.81 20.03H326.96C323.86 20.03 321.34 22.55 321.34 25.65V196.63C321.34 210.65 332.7 222.01 346.72 222.01H466.59V66.66H435.5V190.92Z" fill="white"/>
<path d="M482.13 20.03V51.12H549.66V216.09C549.66 219.36 552.31 222.01 555.58 222.01H574.82C578.09 222.01 580.74 219.36 580.74 216.09V45.56C580.74 31.46 569.31 20.03 555.21 20.03H482.13Z" fill="white"/>
<path d="M562.4 0H327.84C313.4 0 301.65 11.75 301.65 26.19V204C301.65 224.97 318.71 242.03 339.68 242.03H574.25C588.69 242.03 600.43 230.28 600.43 215.84V38.04C600.43 17.06 583.37 0 562.4 0ZM592.66 215.85C592.66 226.01 584.4 234.27 574.25 234.27H339.68C323 234.27 309.42 220.69 309.42 204.01V26.19C309.42 16.03 317.68 7.77 327.84 7.77H562.4C579.08 7.77 592.66 21.35 592.66 38.04V215.85Z" fill="white"/>
<path d="M8.56 358.36C2.85 352.62 0 344.38 0 333.68V291.96H13.73V333.14C13.73 347.65 19.99 354.91 32.54 354.91C45.09 354.91 51.24 347.65 51.24 333.14V291.96H64.76V333.68C64.76 344.38 61.92 352.62 56.25 358.36C50.58 364.1 42.64 366.97 32.43 366.97C22.22 366.97 14.26 364.1 8.56 358.36Z" fill="white"/>
<path d="M149.69 291.96V365.9H138.38L97.6 315.82V365.9H83.98V291.96H95.29L136.06 342.02V291.96H149.69Z" fill="white"/>
<path d="M169.55 291.96H183.28V365.9H169.55V291.96Z" fill="white"/>
<path d="M698.76 303.46H739.01V291.96H685.03V303.47H698.76V303.46Z" fill="white"/>
<path d="M636.43 303.56H611.92V291.96H674.68V303.56H650.16V365.9H636.43V303.56Z" fill="white"/>
<path d="M769.49 362.05C763.46 358.77 758.75 354.24 755.33 348.48C751.92 342.7 750.22 336.18 750.22 328.92C750.22 321.66 751.94 315.17 755.4 309.38C758.84 303.6 763.58 299.07 769.61 295.81C775.63 292.53 782.37 290.89 789.84 290.89C795.89 290.89 801.42 291.96 806.42 294.07C811.42 296.18 815.64 299.24 819.1 303.25L810.22 311.59C804.87 305.81 798.28 302.94 790.46 302.94C785.4 302.94 780.85 304.05 776.84 306.26C772.82 308.47 769.69 311.55 767.44 315.51C765.19 319.45 764.06 323.91 764.06 328.92C764.06 333.93 765.19 338.39 767.44 342.35C769.68 346.29 772.82 349.36 776.84 351.6C780.85 353.81 785.4 354.92 790.46 354.92C798.28 354.92 804.87 352.01 810.22 346.15L819.1 354.62C815.65 358.62 811.4 361.69 806.37 363.8C801.33 365.91 795.78 366.98 789.72 366.98C782.26 366.98 775.51 365.34 769.5 362.06L769.49 362.05Z" fill="white"/>
<path d="M898 291.96V365.9H884.27V334.21H846.03V365.9H832.3V291.96H846.03V322.48H884.27V291.96H898Z" fill="white"/>
<path d="M734.46 334V322.69H685.03V365.9H740.49V354.38H698.76V334H734.46Z" fill="white"/>
<path d="M378.51 303.46H418.76V291.96H364.78V303.47H378.51V303.46Z" fill="white"/>
<path d="M238.7 362.05C232.67 358.77 227.96 354.24 224.54 348.48C221.13 342.7 219.43 336.18 219.43 328.92C219.43 321.66 221.15 315.17 224.61 309.38C228.05 303.6 232.79 299.07 238.82 295.81C244.84 292.53 251.58 290.89 259.05 290.89C265.1 290.89 270.63 291.96 275.63 294.07C280.63 296.18 284.85 299.24 288.31 303.25L279.43 311.59C274.08 305.81 267.49 302.94 259.67 302.94C254.61 302.94 250.06 304.05 246.05 306.26C242.03 308.47 238.9 311.55 236.65 315.51C234.4 319.45 233.27 323.91 233.27 328.92C233.27 333.93 234.4 338.39 236.65 342.35C238.89 346.29 242.03 349.36 246.05 351.6C250.06 353.81 254.61 354.92 259.67 354.92C267.49 354.92 274.08 352.01 279.43 346.15L288.31 354.62C284.86 358.62 280.61 361.69 275.58 363.8C270.54 365.91 264.99 366.98 258.93 366.98C251.47 366.98 244.72 365.34 238.71 362.06L238.7 362.05Z" fill="white"/>
<path d="M301.5 291.96H315.23V354.28H353.89V365.9H301.49V291.96H301.5Z" fill="white"/>
<path d="M580.39 291.96V365.9H569.08L528.3 315.82V365.9H514.68V291.96H525.99L566.76 342.02V291.96H580.39Z" fill="white"/>
<path d="M364.78 365.9H420.24V354.38H378.51V334H414.21V322.69H364.78V365.9Z" fill="white"/>
<path d="M446.49 348.89L446.54 348.78L446.49 348.89Z" fill="white"/>
<path d="M490.91 365.9H505.27L471.89 291.96H458.37L425.09 365.9H439.25C447.84 345.83 456.43 325.76 465.02 305.69C473.65 325.76 482.28 345.83 490.91 365.9Z" fill="white"/>
</g>
<defs>
<clipPath id="clip0_634_2">
<rect width="898" height="408.92" fill="white"/>
</clipPath>
</defs>
</svg>
