<svg width="300" height="243" viewBox="0 0 300 243" fill="none" xmlns="http://www.w3.org/2000/svg">
<path d="M165.59 20.0303H134.5V51.1203H165.59V20.0303Z" fill="#231815"/>
<path d="M134.5 190.92H51.4298V25.6503C51.4298 22.5503 48.9098 20.0303 45.8098 20.0303H25.9598C22.8598 20.0303 20.3398 22.5503 20.3398 25.6503V196.63C20.3398 210.65 31.6998 222.01 45.7198 222.01H165.59V66.6603H134.5V190.92Z" fill="#231815"/>
<path d="M181.13 20.0303V51.1203H248.66V216.09C248.66 219.36 251.31 222.01 254.58 222.01H273.82C277.09 222.01 279.74 219.36 279.74 216.09V45.5603C279.74 31.4603 268.31 20.0303 254.21 20.0303H181.13Z" fill="#231815"/>
<path d="M261.4 0H26.8399C12.3999 0 0.649902 11.75 0.649902 26.19V204C0.649902 224.97 17.7099 242.03 38.6799 242.03H273.25C287.69 242.03 299.43 230.28 299.43 215.84V38.04C299.43 17.06 282.37 0 261.4 0ZM291.66 215.85C291.66 226.01 283.4 234.27 273.25 234.27H38.6799C21.9999 234.27 8.41992 220.69 8.41992 204.01V26.19C8.41992 16.03 16.6799 7.77 26.8399 7.77H261.4C278.08 7.77 291.66 21.35 291.66 38.04V215.85Z" fill="#231815"/>
</svg>
