<svg width="24" height="24" viewBox="0 0 24 24" fill="none" xmlns="http://www.w3.org/2000/svg">
<g clip-path="url(#clip0_247_305)">
<path d="M20.7541 7.00339V10.2696C20.7541 10.2696 17.9312 10.4234 15.6964 8.5596V16.0421C15.6964 16.3316 15.6693 16.6121 15.615 16.9016C15.3435 18.2316 14.2126 21.5974 9.76109 21.9864C9.53489 22.0045 9.3087 22.0045 9.08251 21.9864C7.81582 21.8779 4.02483 21.1721 3.27387 16.6121C3.18339 16.0873 3.17434 15.5535 3.25577 15.0287C3.48196 13.4725 5.09246 9.19294 10.3854 9.70866V12.9568C10.3854 12.9568 8.1144 12.4139 7.01058 14.1692C6.43152 15.0921 6.36819 16.2502 6.85676 17.2183C7.22772 17.9602 7.97868 18.7202 9.44441 18.7745C10.0597 18.7745 12.014 18.5573 12.4483 16.1416V2H15.6964C15.6964 2 15.6964 6.68672 20.7631 7.00339H20.7541Z" fill="black"/>
</g>
<defs>
<clipPath id="clip0_247_305">
<rect width="24" height="24" fill="white"/>
</clipPath>
</defs>
</svg>
